<mxfile host="app.diagrams.net" modified="2023-03-14T15:33:07.611Z" agent="5.0 (Windows)" etag="hMGxTkTjZo5LmOuCHc9H" version="21.0.6" type="github">
  <diagram name="Page-1" id="_brEYTuebvPvWf_pUvOi">
    <mxGraphModel dx="1836" dy="542" grid="1" gridSize="10" guides="1" tooltips="1" connect="1" arrows="1" fold="1" page="1" pageScale="1" pageWidth="850" pageHeight="1100" math="0" shadow="0">
      <root>
        <mxCell id="0" />
        <mxCell id="1" parent="0" />
        <mxCell id="V3QSZNSe0b6lcg50ALse-7" value="" style="shape=umlLifeline;perimeter=lifelinePerimeter;whiteSpace=wrap;html=1;container=1;dropTarget=0;collapsible=0;recursiveResize=0;outlineConnect=0;portConstraint=eastwest;newEdgeStyle={&quot;edgeStyle&quot;:&quot;elbowEdgeStyle&quot;,&quot;elbow&quot;:&quot;vertical&quot;,&quot;curved&quot;:0,&quot;rounded&quot;:0};participant=umlActor;" parent="1" vertex="1">
          <mxGeometry x="80" y="80" width="20" height="400" as="geometry" />
        </mxCell>
        <mxCell id="V3QSZNSe0b6lcg50ALse-8" value="PreSession" style="shape=umlLifeline;perimeter=lifelinePerimeter;whiteSpace=wrap;html=1;container=1;dropTarget=0;collapsible=0;recursiveResize=0;outlineConnect=0;portConstraint=eastwest;newEdgeStyle={&quot;edgeStyle&quot;:&quot;elbowEdgeStyle&quot;,&quot;elbow&quot;:&quot;vertical&quot;,&quot;curved&quot;:0,&quot;rounded&quot;:0};" parent="1" vertex="1">
          <mxGeometry x="280" y="80" width="100" height="400" as="geometry" />
        </mxCell>
        <mxCell id="V3QSZNSe0b6lcg50ALse-9" value="Open pre-session" style="html=1;verticalAlign=bottom;startArrow=oval;startFill=1;endArrow=block;startSize=8;edgeStyle=elbowEdgeStyle;elbow=vertical;curved=0;rounded=0;" parent="1" target="V3QSZNSe0b6lcg50ALse-8" edge="1">
          <mxGeometry width="60" relative="1" as="geometry">
            <mxPoint x="90" y="140" as="sourcePoint" />
            <mxPoint x="150" y="140" as="targetPoint" />
          </mxGeometry>
        </mxCell>
        <mxCell id="EKv5OnNOHWtHoEkko2qL-3" value="Set settings" style="html=1;verticalAlign=bottom;startArrow=oval;startFill=1;endArrow=block;startSize=8;edgeStyle=elbowEdgeStyle;elbow=vertical;curved=0;rounded=0;" parent="1" source="V3QSZNSe0b6lcg50ALse-7" target="V3QSZNSe0b6lcg50ALse-8" edge="1">
          <mxGeometry width="60" relative="1" as="geometry">
            <mxPoint x="110" y="200" as="sourcePoint" />
            <mxPoint x="450" y="280" as="targetPoint" />
            <Array as="points">
              <mxPoint x="270" y="180" />
              <mxPoint x="280" y="170" />
              <mxPoint x="260" y="220" />
              <mxPoint x="280" y="190" />
            </Array>
          </mxGeometry>
        </mxCell>
        <mxCell id="EKv5OnNOHWtHoEkko2qL-4" value="Session" style="shape=umlLifeline;perimeter=lifelinePerimeter;whiteSpace=wrap;html=1;container=1;dropTarget=0;collapsible=0;recursiveResize=0;outlineConnect=0;portConstraint=eastwest;newEdgeStyle={&quot;edgeStyle&quot;:&quot;elbowEdgeStyle&quot;,&quot;elbow&quot;:&quot;vertical&quot;,&quot;curved&quot;:0,&quot;rounded&quot;:0};" parent="1" vertex="1">
          <mxGeometry x="520" y="80" width="100" height="400" as="geometry" />
        </mxCell>
        <mxCell id="EKv5OnNOHWtHoEkko2qL-6" value="Start session" style="html=1;verticalAlign=bottom;startArrow=oval;startFill=1;endArrow=block;startSize=8;edgeStyle=elbowEdgeStyle;elbow=vertical;curved=0;rounded=0;" parent="1" source="V3QSZNSe0b6lcg50ALse-7" target="V3QSZNSe0b6lcg50ALse-8" edge="1">
          <mxGeometry width="60" relative="1" as="geometry">
            <mxPoint x="110" y="390" as="sourcePoint" />
            <mxPoint x="450" y="280" as="targetPoint" />
            <Array as="points">
              <mxPoint x="260" y="220" />
            </Array>
          </mxGeometry>
        </mxCell>
        <mxCell id="EKv5OnNOHWtHoEkko2qL-9" value="&lt;div&gt;Open session&lt;/div&gt;" style="html=1;verticalAlign=bottom;startArrow=oval;startFill=1;endArrow=block;startSize=8;edgeStyle=elbowEdgeStyle;elbow=vertical;curved=0;rounded=0;" parent="1" target="EKv5OnNOHWtHoEkko2qL-4" edge="1">
          <mxGeometry width="60" relative="1" as="geometry">
            <mxPoint x="330" y="220" as="sourcePoint" />
            <mxPoint x="450" y="280" as="targetPoint" />
          </mxGeometry>
        </mxCell>
        <mxCell id="EKv5OnNOHWtHoEkko2qL-11" value="WordGenAPI" style="shape=umlLifeline;perimeter=lifelinePerimeter;whiteSpace=wrap;html=1;container=1;dropTarget=0;collapsible=0;recursiveResize=0;outlineConnect=0;portConstraint=eastwest;newEdgeStyle={&quot;edgeStyle&quot;:&quot;elbowEdgeStyle&quot;,&quot;elbow&quot;:&quot;vertical&quot;,&quot;curved&quot;:0,&quot;rounded&quot;:0};" parent="1" vertex="1">
          <mxGeometry x="750" y="80" width="100" height="400" as="geometry" />
        </mxCell>
        <mxCell id="EKv5OnNOHWtHoEkko2qL-12" value="WordTranslateAPI" style="shape=umlLifeline;perimeter=lifelinePerimeter;whiteSpace=wrap;html=1;container=1;dropTarget=0;collapsible=0;recursiveResize=0;outlineConnect=0;portConstraint=eastwest;newEdgeStyle={&quot;edgeStyle&quot;:&quot;elbowEdgeStyle&quot;,&quot;elbow&quot;:&quot;vertical&quot;,&quot;curved&quot;:0,&quot;rounded&quot;:0};" parent="1" vertex="1">
          <mxGeometry x="970" y="80" width="100" height="400" as="geometry" />
        </mxCell>
        <mxCell id="uM_F3Oen2c-0RkTZDdHO-1" value="Request random word based on settings" style="html=1;verticalAlign=bottom;startArrow=oval;startFill=1;endArrow=block;startSize=8;edgeStyle=elbowEdgeStyle;elbow=vertical;curved=0;rounded=0;" edge="1" parent="1" source="EKv5OnNOHWtHoEkko2qL-4" target="EKv5OnNOHWtHoEkko2qL-11">
          <mxGeometry width="60" relative="1" as="geometry">
            <mxPoint x="670" y="210" as="sourcePoint" />
            <mxPoint x="730" y="210" as="targetPoint" />
            <Array as="points">
              <mxPoint x="640" y="220" />
            </Array>
          </mxGeometry>
        </mxCell>
        <mxCell id="uM_F3Oen2c-0RkTZDdHO-2" value="&lt;div&gt;Request translated word based on &lt;br&gt;&lt;/div&gt;&lt;div&gt;target language&lt;br&gt;&lt;/div&gt;" style="html=1;verticalAlign=bottom;startArrow=oval;startFill=1;endArrow=block;startSize=8;edgeStyle=elbowEdgeStyle;elbow=vertical;curved=0;rounded=0;" edge="1" parent="1" source="EKv5OnNOHWtHoEkko2qL-11" target="EKv5OnNOHWtHoEkko2qL-12">
          <mxGeometry width="60" relative="1" as="geometry">
            <mxPoint x="750" y="300" as="sourcePoint" />
            <mxPoint x="810" y="300" as="targetPoint" />
            <Array as="points">
              <mxPoint x="870" y="220" />
              <mxPoint x="830" y="210" />
            </Array>
            <mxPoint as="offset" />
          </mxGeometry>
        </mxCell>
        <mxCell id="uM_F3Oen2c-0RkTZDdHO-5" value="Return word and other values like synonyms, sentences etc." style="html=1;verticalAlign=bottom;endArrow=open;dashed=1;endSize=8;edgeStyle=elbowEdgeStyle;elbow=vertical;curved=0;rounded=0;" edge="1" parent="1" source="EKv5OnNOHWtHoEkko2qL-12" target="EKv5OnNOHWtHoEkko2qL-4">
          <mxGeometry relative="1" as="geometry">
            <mxPoint x="660" y="300" as="sourcePoint" />
            <mxPoint x="580" y="300" as="targetPoint" />
            <Array as="points">
              <mxPoint x="650" y="260" />
            </Array>
          </mxGeometry>
        </mxCell>
        <mxCell id="uM_F3Oen2c-0RkTZDdHO-6" value="Request user click on card to reveal answer" style="html=1;verticalAlign=bottom;startArrow=oval;startFill=1;endArrow=block;startSize=8;edgeStyle=elbowEdgeStyle;elbow=vertical;curved=0;rounded=0;" edge="1" parent="1" source="EKv5OnNOHWtHoEkko2qL-4" target="V3QSZNSe0b6lcg50ALse-7">
          <mxGeometry width="60" relative="1" as="geometry">
            <mxPoint x="450" y="290" as="sourcePoint" />
            <mxPoint x="510" y="290" as="targetPoint" />
            <Array as="points">
              <mxPoint x="400" y="260" />
            </Array>
          </mxGeometry>
        </mxCell>
        <mxCell id="uM_F3Oen2c-0RkTZDdHO-7" value="&lt;div&gt;Alternative&lt;/div&gt;" style="shape=umlFrame;whiteSpace=wrap;html=1;pointerEvents=0;" vertex="1" parent="1">
          <mxGeometry x="-70" y="230" width="670" height="200" as="geometry" />
        </mxCell>
        <mxCell id="uM_F3Oen2c-0RkTZDdHO-9" value="" style="endArrow=none;dashed=1;html=1;dashPattern=1 3;strokeWidth=2;rounded=0;exitX=-0.004;exitY=0.475;exitDx=0;exitDy=0;exitPerimeter=0;entryX=1.004;entryY=0.48;entryDx=0;entryDy=0;entryPerimeter=0;" edge="1" parent="1" source="uM_F3Oen2c-0RkTZDdHO-7" target="uM_F3Oen2c-0RkTZDdHO-7">
          <mxGeometry width="50" height="50" relative="1" as="geometry">
            <mxPoint y="370" as="sourcePoint" />
            <mxPoint x="50" y="320" as="targetPoint" />
          </mxGeometry>
        </mxCell>
        <mxCell id="uM_F3Oen2c-0RkTZDdHO-10" value="[If not a quiz]" style="text;html=1;strokeColor=none;fillColor=none;align=center;verticalAlign=middle;whiteSpace=wrap;rounded=0;" vertex="1" parent="1">
          <mxGeometry x="-50" y="270" width="110" height="40" as="geometry" />
        </mxCell>
        <mxCell id="uM_F3Oen2c-0RkTZDdHO-11" value="[else]" style="text;html=1;strokeColor=none;fillColor=none;align=center;verticalAlign=middle;whiteSpace=wrap;rounded=0;" vertex="1" parent="1">
          <mxGeometry x="-50" y="350" width="110" height="40" as="geometry" />
        </mxCell>
        <mxCell id="uM_F3Oen2c-0RkTZDdHO-13" value="Request user type in word then click check button to reveal answer" style="html=1;verticalAlign=bottom;startArrow=oval;startFill=1;endArrow=block;startSize=8;edgeStyle=elbowEdgeStyle;elbow=vertical;curved=0;rounded=0;" edge="1" parent="1">
          <mxGeometry width="60" relative="1" as="geometry">
            <mxPoint x="570" y="380" as="sourcePoint" />
            <mxPoint x="90" y="380" as="targetPoint" />
            <Array as="points">
              <mxPoint x="400" y="380" />
            </Array>
          </mxGeometry>
        </mxCell>
      </root>
    </mxGraphModel>
  </diagram>
</mxfile>
